<svg xmlns="http://www.w3.org/2000/svg"><symbol id="accordion-arrows" viewBox="0 0 137.333 137.333"><path d="M23.468 137.333V0l90.398 68.667-90.398 68.666zm5.967-125.304v113.275l74.574-56.638-74.574-56.637z"/></symbol><symbol id="ads" viewBox="0 0 48 48"><path d="M47.199 0H.801C.32 0 0 .32 0 .801v46.398c0 .481.32.801.801.801h46.398c.481 0 .801-.32.801-.801V.801C48 .32 47.68 0 47.199 0zm-.801 46.398H1.602V1.602h44.796v44.796zm0 0"/><path d="M4.801 15.199h38.398c.48 0 .801-.32.801-.801V4.801C44 4.32 43.68 4 43.199 4H4.801C4.32 4 4 4.32 4 4.801v9.597c0 .481.32.801.801.801zm.801-9.597h36.796v8H5.602v-8zm37.597 12h-9.598c-.48 0-.801.32-.801.796v8.801c0 .48.32.801.801.801h9.598c.481 0 .801-.32.801-.801v-8.801c0-.476-.32-.796-.801-.796zm-.801 7.839l-6.797-6.242h6.797v6.242zm-8-5.203l6.723 6.161h-6.723v-6.161zm8.801 10.16h-9.598c-.48 0-.801.32-.801.801v12c0 .48.32.801.801.801h9.598c.481 0 .801-.32.801-.801v-12c0-.48-.32-.801-.801-.801zM41.52 32l-7.121 8.961V32h7.121zm-6.239 10.398l7.117-8.879v8.879h-7.117zM4.801 32h13.597c.481 0 .801-.32.801-.801V18.398c0-.476-.32-.796-.801-.796H4.801c-.481 0-.801.32-.801.796v12.801c0 .481.32.801.801.801zm2.078-1.602L17.602 20.32v10.079H6.879zm9.519-11.199L5.602 29.359v-10.16h10.796zm5.204-1.597h8V19.2h-8zm0 4h8V23.2h-8zm0 4h8v1.599h-8zm0 4h8v1.599h-8zM4.801 34.398h24.801V36H4.801zm0 4h24.801V40H4.801zm0 4h24.801V44H4.801z"/><path d="M24 10.398h2.398V12H24zm4 0h2.398V12H28zm-8 0h2.398V12H20z"/></symbol><symbol id="analytics" viewBox="549.921 375.591 90.708 90.708"><path d="M625.056 404.923v2.088h2.148v37.266h-63.857v-37.266h2.146v-2.088h-4.234v41.442h68.032v-41.442z"/><path d="M564.478 438.07h61.647v2.088h-61.647zm2.087 3.062h2.087v2.088h-2.087zm3.201 0h2.087v2.088h-2.087zm3.201 0h2.087v2.088h-2.087zm15.864 11.83h12.942v2.087h-12.942zm0-5.288v2.087h5.149v1.948h2.087v-1.948h5.706v-2.087zm-22.253-60.832v38.251h24.01l4.687 4.687 4.687-4.687h24.011v-38.251h-57.395zm55.307 36.163h-22.788l-3.822 3.822-3.823-3.822h-22.788V388.93h53.221v34.075z"/><path d="M571.854 391.313h8.627v2.087h-8.627zm24.916 22.266l-2.165-2.163a9.5 9.5 0 0 0 1.712-5.449c0-5.267-4.285-9.553-9.552-9.553a9.509 9.509 0 0 0-3.318.595l-2.63-2.635h-8.964v2.087h8.099l1.542 1.544a9.55 9.55 0 0 0-4.28 7.96c0 5.267 4.285 9.552 9.552 9.552a9.516 9.516 0 0 0 6.464-2.526l2.677 2.673h8.928v-2.087h-8.065v.002zm-11.14-8.042v7.809c-3.58-.548-6.33-3.648-6.33-7.378a7.468 7.468 0 0 1 3.705-6.445l2.479 2.483 1.478-1.475-1.841-1.844a7.439 7.439 0 0 1 6.062 1.267l-5.553 5.583zm7.469 4.376l-1.348-1.346-1.475 1.477 1.476 1.474a7.446 7.446 0 0 1-4.035 1.853v-6.972l4.958-4.984a7.425 7.425 0 0 1 1.556 4.553 7.423 7.423 0 0 1-1.132 3.945zm3.246 6.866h8.489v2.087h-8.489zm5.428-23.378h2.088v2.087h-2.088zm4.175 0h12.803v2.087h-12.803zm-4.175 3.2h2.088v2.088h-2.088zm4.175 0h12.803v2.088h-12.803zm-4.175 3.062h2.088v2.087h-2.088zm4.175 0h12.803v2.087h-12.803zm-34.094 19.204h8.627v2.088h-8.627zm38.269-13.777h8.628v2.087h-8.628zm3.2 4.314h5.428v2.087h-5.428zm2.088 4.175h3.34v2.087h-3.34zm1.113 4.175h2.227v2.087h-2.227z"/></symbol><symbol id="arrow" viewBox="0 0 5 8"><path data-name="Shape 29 copy" d="M0 0l5 4-5 4V0z"/></symbol><symbol id="chatwork" viewBox="0 0 288 59.107"><path d="M55.171 30.395a13.213 13.213 0 0 0-8.871-3.872h-7.104c4.04.014 7.233-1.131 9.97-3.869 5.172-5.172 5.172-13.592 0-18.77-5.176-5.178-13.598-5.178-18.774 0a13.21 13.21 0 0 0-3.871 8.871v7.156c.014-4.04-1.131-7.233-3.868-9.97-5.174-5.172-13.593-5.172-18.771 0-5.177 5.177-5.177 13.598 0 18.774a13.207 13.207 0 0 0 8.872 3.872h7.103c-4.04-.014-7.233 1.131-9.97 3.869-5.172 5.173-5.172 13.592 0 18.77 5.177 5.178 13.598 5.178 18.773 0a13.209 13.209 0 0 0 3.872-8.871V39.2c-.013 4.04 1.131 7.233 3.869 9.97 5.173 5.172 13.592 5.172 18.77 0 5.178-5.178 5.178-13.6 0-18.775zm-8.601 2.168l.004.004-.004.008v-.012zM32.564 12.481l.008.004h-.011l.003-.004zM12.483 26.546l-.004-.004.004-.008v.012zm1.918-.02h-1.904v-.003a7.192 7.192 0 0 1-4.35-2.075c-2.823-2.822-2.823-7.417.001-10.241s7.415-2.825 10.239 0a7.175 7.175 0 0 1 2.075 4.341h-.005v14.038a6.053 6.053 0 0 0-6.056-6.06zm12.087 20.102l-.008-.004h.012l-.004.004zm-.016-1.923v1.905h-.003a7.192 7.192 0 0 1-2.075 4.35c-2.822 2.823-7.416 2.823-10.241-.001a7.246 7.246 0 0 1 0-10.24 7.174 7.174 0 0 1 4.341-2.074v.004h14.037a6.054 6.054 0 0 0-6.059 6.056zm6.06-12.119h-6.011v-6.063h6.011v6.063zm.066-12.126h-6.077a6.055 6.055 0 0 0 6.059-6.057v-1.904h.004a7.192 7.192 0 0 1 2.075-4.35c2.822-2.825 7.416-2.825 10.241 0a7.246 7.246 0 0 1 0 10.24 7.17 7.17 0 0 1-4.341 2.075v-.004h-7.961zm18.307 24.441a7.246 7.246 0 0 1-10.24 0 7.175 7.175 0 0 1-2.075-4.341h.004l-.011-7.96v-6.076l-.004-.001h.004c0 3.352 2.725 6.06 6.068 6.06h1.906v.004a7.19 7.19 0 0 1 4.349 2.074c2.823 2.821 2.823 7.415-.001 10.24zm42.517-23.2l-4.685 3.896c-1.463-1.567-3.026-2.417-5.141-2.422-3.36-.005-6.053 2.628-6.061 6.632-.005 4.033 2.652 6.647 6.013 6.652 2.086.002 3.88-.94 5.251-2.431l4.616 3.963c-2.268 2.907-5.653 4.52-9.684 4.513-7.685-.017-12.828-5.397-12.813-12.708.013-7.295 5.173-12.678 12.858-12.663 4.034.006 7.438 1.65 9.646 4.568zm10.203-1.303c1.721-2.384 4.282-3.223 6.92-3.218 5.472.01 9.372 3.823 9.36 9.417l-.028 15.309h-6.467v-13.23c.005-3.484-1.73-5.402-4.692-5.407-2.785-.005-5.127 1.805-5.135 5.437v13.213l-6.491-.013V6.059l6.557.014-.024 14.325zm44.84 21.501h-6.389l.005-2.672c-1.571 1.937-3.912 3.274-7.222 3.268-6.643-.012-11.655-5.467-11.643-12.705.012-7.236 5.046-12.675 11.689-12.662 3.309.004 5.622 1.351 7.209 3.317l.004-2.659 6.345.009v24.104zm-18.609-12.097c-.006 3.685 2.403 6.646 6.211 6.652 3.705.007 6.223-2.826 6.229-6.631.005-3.806-2.498-6.644-6.207-6.648-3.804-.01-6.226 2.943-6.233 6.627zm41.906-6.208h-8.732l-.016 8.904c-.004 3.012 1.586 4.106 3.601 4.109 1.539.004 3.21-.761 4.529-1.557l1.794 5.462c-1.984 1.242-4.285 2.144-7.405 2.139-5.969-.013-9.026-3.397-9.014-9.643l.017-9.415h-4.652v-5.777h4.663l.009-5.09h6.486v5.09h6.8l1.92 5.778zm31.12 11.113l5.205-16.906 6.793.012-8.205 24.092-7.414-.016-5.32-16.303-5.328 16.324-7.361-.011-8.066-24.111 6.894.004 5.09 16.805 5.436-16.809h6.834l5.442 16.919zm38.325-4.865c-.014 7.265-5.568 12.675-13.086 12.66-7.482-.011-12.996-5.443-12.98-12.707.012-7.261 5.541-12.673 13.027-12.66 7.515.015 13.052 5.445 13.039 12.707zm-19.45-.036c-.008 3.907 2.721 6.646 6.375 6.652 3.664.008 6.428-2.724 6.434-6.627.008-3.907-2.748-6.648-6.41-6.652-3.653-.008-6.391 2.724-6.399 6.627zm39.252-12.112l-.984 6.443c-1.07-.479-2.611-.775-3.93-.778-3.012-.006-5.076 1.829-5.084 5.412v13.134l-6.516-.012V17.79l6.334.013-.002 2.636c1.521-2.263 3.838-3.275 6.793-3.271 1.397.002 2.489.202 3.389.526zm9.907 8.66l2.287.005 6.809-8.573h7.959l-9.525 11.341L288 41.905l-7.984-.016-6.922-9.765-2.207-.002v9.782h-6.492V6.059h6.521v20.295z"/></symbol><symbol id="clip" viewBox="0 0 512 512"><path d="M359.784 103.784v262.919c0 57.226-46.557 103.784-103.784 103.784S152.216 423.93 152.216 366.703V103.784c0-34.336 27.934-62.27 62.27-62.27s62.27 27.934 62.27 62.27v262.919c0 11.445-9.312 20.757-20.757 20.757s-20.757-9.311-20.757-20.757V103.784H193.73v262.919c0 34.336 27.934 62.27 62.27 62.27s62.27-27.934 62.27-62.27V103.784C318.27 46.557 271.713 0 214.487 0S110.703 46.557 110.703 103.784v262.919C110.703 446.82 175.883 512 256 512s145.297-65.18 145.297-145.297V103.784h-41.513z"/></symbol><symbol id="close" viewBox="0 0 511.968 511.968"><path d="M511.968 24.072l-10.992-11.584-244.992 232.48L10.992 12.488 0 24.072l244.368 231.904L0 487.88l10.992 11.6L255.984 267l244.992 232.48 10.992-11.6L267.6 255.976z"/></symbol><symbol id="consulting" viewBox="0 0 60 60"><path d="M22 22v2h12c.6 0 1-.4 1-1v-5c0-.6-.4-1-1-1H7c-3.9 0-7 3.1-7 7v14h2V24c0-2.8 2.2-5 5-5h1.3l2.8 7.4c.1.3.5.6.9.6s.8-.3 1.1-.6l2.8-7.4H33v3H22zm-9.9 1.2L10.5 19h3.2l-1.6 4.2z"/><path d="M17 58h-4V39h-2v19H7V25H5v34c0 .6.4 1 1 1h12c.6 0 1-.4 1-1V25h-2v33z"/><path d="M11 29h2v2h-2zm0 4h2v2h-2zm0-17h2c2.8 0 5-2.2 5-5V8c0-2.8-2.2-5-5-5h-2C8.2 3 6 5.2 6 8v3c0 2.8 2.2 5 5 5zM8 8c0-1.7 1.3-3 3-3h2c1.7 0 3 1.3 3 3v3c0 1.7-1.3 3-3 3h-2c-1.7 0-3-1.3-3-3V8zm22 6h22c.6 0 1-.4 1-1V1c0-.6-.4-1-1-1H30c-.6 0-1 .4-1 1v12c0 .6.4 1 1 1zm1-12h20v10H31V2zm7 35H24c-.6 0-1 .4-1 1v8c0 .6.4 1 1 1h6v3h-6c-.6 0-1 .4-1 1v8c0 .6.4 1 1 1h14c.6 0 1-.4 1-1v-8c0-.6-.4-1-1-1h-6v-3h6c.6 0 1-.4 1-1v-8c0-.6-.4-1-1-1zm-1 21H25v-6h12v6zm0-13H25v-6h12v6zm22 2c.6 0 1-.4 1-1v-8c0-.6-.4-1-1-1H45c-.6 0-1 .4-1 1v8c0 .6.4 1 1 1h6v3h-6c-.6 0-1 .4-1 1v8c0 .6.4 1 1 1h14c.6 0 1-.4 1-1v-8c0-.6-.4-1-1-1h-6v-3h6zm-1 11H46v-6h12v6zM46 39h12v6H46v-6zm7-4v-3c0-.6-.4-1-1-1H42V16h-2v15h-9c-.6 0-1 .4-1 1v3h2v-2h19v2h2z"/><path d="M33 4h12v2H33zm0 4h16v2H33zm-5 33h2v2h-2zm4 0h2v2h-2zm-4 13h2v2h-2zm4 0h2v2h-2zm17 0h2v2h-2zm4 0h2v2h-2zm-4-13h2v2h-2zm4 0h2v2h-2z"/></symbol><symbol id="curve-arrow" viewBox="0 0 52.519 52.519"><g><path d="M16.049 31.137H4.001l20.08 19.971 20.08-19.971H32.113S27.821 13.402 48.177 1.288c0 0-15.536-3.02-26.794 10.51-.001-.001-5.732 6.129-5.334 19.339z"/><path d="M24.081 52.519L1.577 30.137H15.03c-.092-12.759 5.383-18.767 5.622-19.022C28.691 1.45 38.933 0 44.318 0c2.446 0 3.985.294 4.049.307l2.574.5-2.253 1.341C31.371 12.453 32.394 26.663 32.94 30.137h13.645L24.081 52.519zM6.425 32.137l17.656 17.562 17.656-17.562H31.326l-.185-.765c-.043-.177-3.881-17.082 14.041-29.358-4.784-.15-15.02.795-23.031 10.423-.091.1-5.481 6.089-5.103 18.67l.03 1.03H6.425z"/></g></symbol><symbol id="envelope" viewBox="0 0 58.561 58.561"><path d="M57.688 30.369l-2.85-2.85a2.99 2.99 0 0 0-4.221 0L35.226 42.91l-2.121 7.779-.519.519a.998.998 0 0 0-.006 1.405l-.005.02.019-.005A.994.994 0 0 0 34 52.623l.52-.52 7.778-2.121 15.39-15.391a2.989 2.989 0 0 0 0-4.222zM37.535 43.43l10.243-10.243 4.243 4.243-10.243 10.243-4.243-4.243zm-.902 1.926l3.22 3.22-4.428 1.207 1.208-4.427zm19.641-12.179l-2.839 2.839-4.243-4.242 2.839-2.839a.987.987 0 0 1 1.394-.001l2.85 2.85a.987.987 0 0 1-.001 1.393z"/><path d="M29 44.646H3.879c4.548-3.604 14.801-11.781 20.069-16.403l1.421 1.255c1.001.894 2.317 1.341 3.632 1.341 1.313 0 2.627-.446 3.625-1.337L56 8.863v15.782a1 1 0 1 0 2 0v-18c0-.008-.004-.014-.005-.022a.977.977 0 0 0-.06-.331l-.011-.019c-.011-.027-.029-.048-.041-.073a.996.996 0 0 0-.15-.222.995.995 0 0 0-.082-.077.934.934 0 0 0-.204-.137c-.033-.017-.063-.034-.097-.047a.976.976 0 0 0-.35-.071H1a.985.985 0 0 0-.351.071c-.035.013-.065.03-.097.047a1.012 1.012 0 0 0-.204.137c-.029.026-.056.049-.082.077-.06.066-.108.14-.15.222-.012.026-.03.047-.041.073l-.011.019a1 1 0 0 0-.059.331C.004 6.631 0 6.638 0 6.646v39l.002.009c.001.107.017.214.053.319.004.012.013.021.018.033.014.035.035.065.052.098a.96.96 0 0 0 .422.42c.034.018.065.037.101.051.111.041.228.07.352.07h28a1 1 0 1 0 0-2zM2 43.582V8.863l20.437 18.046C16.881 31.763 6.086 40.349 2 43.582zM54.357 7.646l-23.058 20.36c-1.267 1.132-3.33 1.132-4.602-.004l-1.979-1.747c-.006-.007-.007-.015-.013-.021-.022-.025-.053-.035-.077-.057L3.643 7.646h50.714z"/></symbol><symbol id="facebook" viewBox="28.5 38.554 15.937 15.938"><path d="M44.438 39.436V53.61a.882.882 0 0 1-.882.882h-4.057v-6.174h2.064l.312-2.407h-2.376v-1.535c0-.695.187-1.162 1.193-1.162l1.266-.011v-2.147a16.549 16.549 0 0 0-1.847-.094c-1.837 0-3.103 1.121-3.103 3.175v1.774h-2.075v2.407h2.075v6.174h-7.626a.882.882 0 0 1-.882-.882V39.436c0-.487.394-.882.882-.882h14.173c.489 0 .883.394.883.882z"/></symbol><symbol id="feedly" viewBox="0 0 141.732 141.732"><path d="M135.349 73.85L76.433 14.938a7.87 7.87 0 0 0-11.133 0L6.384 73.85c-3.074 3.078-3.076 8.063 0 11.137L50.498 129.1h40.736l44.113-44.113a7.876 7.876 0 0 0 .002-11.137zm-98.03 12.329l-6.557-6.556a1.172 1.172 0 0 1 0-1.655l38.897-38.899a1.175 1.175 0 0 1 1.659 0l8.754 8.759a1.173 1.173 0 0 1 0 1.654L43.374 86.179h-6.055zm43.133 24.382l-6.559 6.556h-6.055l-6.557-6.556a1.17 1.17 0 0 1 0-1.654l8.757-8.758a1.17 1.17 0 0 1 1.658 0l8.756 8.758a1.173 1.173 0 0 1 0 1.654zm.094-30.84L58.73 101.535h-6.055l-6.557-6.556a1.17 1.17 0 0 1 0-1.654l24.016-24.017a1.17 1.17 0 0 1 1.657 0l8.756 8.758a1.175 1.175 0 0 1-.001 1.655z"/></symbol><symbol id="google-plus" viewBox="90.861 38.062 23.906 15.211"><path d="M98.467 53.272c-4.201 0-7.605-3.403-7.605-7.605s3.404-7.605 7.605-7.605c2.055 0 3.768.747 5.096 1.992l-2.065 1.981c-.561-.539-1.546-1.172-3.03-1.172-2.594 0-4.71 2.147-4.71 4.804s2.116 4.804 4.71 4.804c3.01 0 4.141-2.168 4.317-3.278h-4.317v-2.615h7.181c.073.384.125.769.125 1.267-.002 4.346-2.918 7.427-7.307 7.427zm16.301-6.515H112.6v2.168h-2.179v-2.168h-2.169v-2.18h2.169v-2.168h2.179v2.168h2.168v2.18z"/></symbol><symbol id="graphic" viewBox="549.921 375.591 90.708 90.708"><path d="M600.888 386.626h-38.364c-.698 0-1.265.567-1.265 1.265v50.294c0 .7.567 1.266 1.265 1.266h38.364c.697 0 1.266-.565 1.266-1.266v-50.294c0-.698-.569-1.265-1.266-1.265zm-1.265 50.293H563.79v-32.336h35.833v32.336zm0-34.867H563.79v-12.896h35.833v12.896zm28.402-15.426h-21.56c-.702 0-1.266.567-1.266 1.265v12.844c0 .699.563 1.265 1.266 1.265h21.56c.701 0 1.266-.566 1.266-1.265v-12.844c0-.698-.565-1.265-1.266-1.265zm-1.265 12.843h-19.029v-10.313h19.028l.001 10.313zm1.265 5.126h-21.56c-.702 0-1.266.568-1.266 1.265v12.843c0 .701.563 1.265 1.266 1.265h21.56c.701 0 1.266-.564 1.266-1.265V405.86c0-.696-.565-1.265-1.266-1.265zm-1.265 12.843h-19.029v-10.313h19.028l.001 10.313zm1.265 5.218h-21.56c-.702 0-1.266.568-1.266 1.265V454c0 .699.563 1.266 1.266 1.266h21.56c.701 0 1.266-.566 1.266-1.266v-30.079c0-.696-.565-1.265-1.266-1.265zm-1.265 30.078h-19.029v-27.548h19.028l.001 27.548zm-25.896-9.208a1.273 1.273 0 0 0-1.139-.704h-27.814c-.251 0-.496.074-.704.215l-7.392 4.956a1.263 1.263 0 0 0 0 2.101l7.392 4.958c.208.14.453.214.704.214h27.814c.483 0 .924-.274 1.139-.703a12.534 12.534 0 0 0 0-11.037zm-32.965 6.261l-1.108-.744 1.108-.74a3.436 3.436 0 0 1 0 1.484zm3.361 2.251l-1.172-.783a5.997 5.997 0 0 0 0-4.421l1.172-.785c.54 1.956.54 4.036 0 5.989zm21.945.696h-19.513c.221-.797.369-1.608.445-2.427h19.693a9.929 9.929 0 0 1-.625 2.427zm-19.067-4.957a13.901 13.901 0 0 0-.445-2.425h19.513a9.96 9.96 0 0 1 .625 2.425h-19.693zm24.768 4.957h-3.017a12.665 12.665 0 0 0 0-7.382h3.017a9.975 9.975 0 0 1 0 7.382z"/><path d="M617.246 389.777a4.541 4.541 0 0 0-4.538 4.536 4.541 4.541 0 0 0 4.538 4.536 4.538 4.538 0 0 0 4.533-4.536 4.54 4.54 0 0 0-4.533-4.536zm0 6.541a2.012 2.012 0 0 1-2.009-2.006 2.01 2.01 0 0 1 2.009-2.005 2.006 2.006 0 0 1 0 4.011zm-4.379 11.965a4.047 4.047 0 0 0-4.041 4.044 4.047 4.047 0 0 0 4.041 4.045 4.053 4.053 0 0 0 4.05-4.045 4.054 4.054 0 0 0-4.05-4.044zm0 5.559a1.516 1.516 0 0 1-1.512-1.515 1.515 1.515 0 0 1 3.032 0 1.518 1.518 0 0 1-1.52 1.515zm4.379 12.556a4.542 4.542 0 0 0-4.538 4.541 4.536 4.536 0 0 0 9.071 0 4.541 4.541 0 0 0-4.533-4.541zm0 6.541a2.01 2.01 0 0 1-2.009-2c0-1.107.903-2.012 2.009-2.012 1.104 0 2.003.904 2.003 2.012 0 1.103-.899 2-2.003 2zm-47.469-41.917a4.541 4.541 0 0 0-4.536 4.536c0 2.5 2.035 4.535 4.536 4.535 2.5 0 4.536-2.035 4.536-4.535a4.542 4.542 0 0 0-4.536-4.536zm0 6.541c-1.106 0-2.006-.9-2.006-2.005 0-1.106.9-2.006 2.006-2.006 1.105 0 2.005.899 2.005 2.006 0 1.105-.9 2.005-2.005 2.005zm53.793 11.604h-3.414a1.265 1.265 0 1 0 0 2.53h3.414a1.266 1.266 0 0 0 0-2.53zm0 3.7h-3.414a1.265 1.265 0 1 0 0 2.53h3.414a1.265 1.265 0 1 0 0-2.53zm-.67 24.568h-11.313a1.265 1.265 0 0 0 0 2.532H622.9c.701 0 1.266-.565 1.266-1.266 0-.702-.565-1.266-1.266-1.266zm0 4.758h-11.313a1.267 1.267 0 0 0 0 2.532H622.9c.701 0 1.266-.566 1.266-1.266s-.565-1.266-1.266-1.266zm0 4.76h-11.313a1.267 1.267 0 0 0 0 2.531H622.9c.701 0 1.266-.565 1.266-1.265s-.565-1.266-1.266-1.266zm-26.65-34.123h-29.092a1.266 1.266 0 0 0 0 2.532h29.092a1.266 1.266 0 1 0 0-2.532zm0 5.389h-29.092a1.266 1.266 0 0 0 0 2.53h29.092a1.265 1.265 0 1 0 0-2.53zm0 5.386h-29.092c-.699 0-1.265.563-1.265 1.266 0 .701.566 1.266 1.265 1.266h29.092c.701 0 1.266-.564 1.266-1.266a1.264 1.264 0 0 0-1.266-1.266zm0 7.901h-4.65c-.701 0-1.265.567-1.265 1.266 0 .7.564 1.266 1.265 1.266h4.65a1.266 1.266 0 1 0 0-2.532zm-8.064-24.065h-12.962a1.265 1.265 0 1 0 0 2.531h12.962a1.265 1.265 0 0 0 0-2.531z"/></symbol><symbol id="hatebu" viewBox="0 0 141.732 141.732"><circle cx="119.684" cy="107.843" r="13.979"/><path d="M106.954 16.517h25.459v69.532h-25.459zM68.231 63.296s17.591-1.109 17.591-22.191c0-24.41-22.029-24.533-34.604-24.533H8.068v105.305h42.78c34.766 0 40.684-19.007 40.684-31.212s-5.918-23.67-23.301-27.369zm-33.335-26.89h11.835c2.219 0 11.835.946 11.835 10.1 0 10.818-8.322 10.449-13.869 10.449h-9.801V36.406zm13.869 63.081h-13.87V76.372h14.147c8.044 0 14.146 1.664 14.146 11.558s-7.951 11.557-14.423 11.557z"/></symbol><symbol id="instagram" viewBox="70.525 38.573 15.938 15.938"><path d="M86.463 52.467c0 1.12-.923 2.044-2.044 2.044H72.57a2.056 2.056 0 0 1-2.045-2.044v-11.85c0-1.12.924-2.044 2.045-2.044h11.849c1.121 0 2.044.924 2.044 2.044v11.85zm-1.805-7.15h-1.401c.136.426.208.893.208 1.359 0 2.656-2.221 4.804-4.96 4.804-2.729 0-4.949-2.147-4.949-4.804 0-.467.073-.934.208-1.359h-1.463v6.724c0 .354.279.633.633.633h11.092a.628.628 0 0 0 .633-.633v-6.724zm-6.153-1.909c-1.764 0-3.196 1.391-3.196 3.103s1.433 3.103 3.196 3.103c1.774 0 3.206-1.391 3.206-3.103s-1.432-3.103-3.206-3.103zm6.153-2.345a.717.717 0 0 0-.716-.716h-1.806a.717.717 0 0 0-.716.716v1.712c0 .395.321.716.716.716h1.806a.717.717 0 0 0 .716-.716v-1.712z"/></symbol><symbol id="line" viewBox="0 0 141.732 141.732"><path d="M70.562 8.639c-35.254 0-63.834 23.388-63.834 52.24 0 25.907 23.05 47.398 53.279 51.515l-.02.011.393.044c.332.044.663.085.996.123 3.317.457 4.892 1.257 4.84 4.872-.059 4.088-1.659 7.11-2.607 9.065-.948 1.955-2.963 9.954 6.162 4.977 7.024-3.83 41.524-20.701 57.039-45.896 4.107-6.249 6.69-13.264 7.38-20.712.022-.229.045-.458.064-.687.026-.358.053-.717.071-1.078.042-.741.069-1.483.069-2.233.001-28.853-28.578-52.241-63.832-52.241zM43.78 75.957H31.623a3.253 3.253 0 0 1-3.253-3.253V48.047a3.253 3.253 0 0 1 6.506 0V69.45h8.904a3.252 3.252 0 0 1 3.253 3.253 3.252 3.252 0 0 1-3.253 3.254zm13.869-3.253a3.253 3.253 0 0 1-6.506 0V48.047a3.253 3.253 0 0 1 6.506 0v24.657zm29.696 2.3c-.037.037-.081.062-.12.097a3.24 3.24 0 0 1-.374.306c-.095.063-.197.109-.299.162-.087.046-.169.1-.261.138-.119.049-.243.079-.366.114-.081.023-.158.055-.242.071a3.274 3.274 0 0 1-.639.064h-.001c-.011 0-.021-.003-.031-.003a3.326 3.326 0 0 1-.604-.061c-.106-.021-.203-.06-.305-.091-.102-.03-.204-.053-.302-.094-.119-.049-.228-.115-.339-.178-.073-.042-.151-.073-.222-.12a3.282 3.282 0 0 1-.98-1.044L69.634 57.684v15.02a3.253 3.253 0 0 1-6.506 0V48.047c0-.056.014-.108.017-.164.007-.158.017-.314.047-.469.023-.121.066-.234.104-.35.027-.086.045-.173.08-.257.055-.134.128-.256.2-.38.035-.06.061-.123.099-.181.24-.359.548-.668.908-.908.062-.042.131-.069.196-.106.119-.067.235-.138.363-.19.094-.039.192-.06.29-.091.104-.031.207-.072.316-.094.189-.037.381-.054.574-.057.021-.001.041-.006.061-.006.011 0 .022.003.034.003.203.002.404.021.604.06.098.02.189.057.284.084.108.032.218.058.323.101.11.045.211.108.314.165.082.045.167.082.246.134.179.119.345.254.496.406h.001c.187.188.342.405.479.633l12.628 16.683V48.047a3.253 3.253 0 0 1 6.506 0v24.646a3.23 3.23 0 0 1-.064.651c-.014.072-.043.138-.062.207-.037.136-.07.27-.124.4-.036.087-.087.164-.13.248-.055.104-.104.211-.17.311-.086.13-.19.246-.294.361-.039.045-.069.092-.109.133zm21.328-17.882a3.254 3.254 0 1 1 0 6.506h-8.904v5.821h8.904a3.253 3.253 0 1 1 0 6.506H96.516a3.254 3.254 0 0 1-3.254-3.253V48.047a3.254 3.254 0 0 1 3.254-3.253h12.157a3.253 3.253 0 1 1 0 6.506h-8.904v5.821h8.904z"/></symbol><symbol id="menu-path" viewBox="-278 370 54 54"><path d="M-261.5 397h22c13.6 0 11.4-11.4 8-15.6-4.6-5.7-11.6-9.4-19.5-9.4-13.8 0-25 11.2-25 25s11.2 25 25 25 25-11.2 25-25c0-14-11.2-25-25-25"/></symbol><symbol id="office" viewBox="549.921 375.591 90.708 90.708"><path d="M625.891 448.158c-.199 0-.394.015-.584.053a4.506 4.506 0 0 0-3.955-2.32c-1.681 0-3.169.91-3.95 2.32a2.998 2.998 0 0 0-.581-.053 3.408 3.408 0 0 0-3.403 3.403c0 .398.081.774.209 1.132h-4.746v-6.803h5.67c.628 0 1.132-.51 1.132-1.135v-45.354c0-.626-.504-1.135-1.132-1.135h-34.014c-.628 0-1.135.508-1.135 1.135v54.425c0 .625.507 1.133 1.135 1.133h45.355a3.4 3.4 0 0 0-.001-6.801zm-17.011-47.622h4.537v6.803h-4.537v-6.803zm0 9.071h4.537v6.803h-4.537v-6.803zm0 9.07h4.537v6.803h-4.537v-6.803zm0 9.074h4.537v6.8h-4.537v-6.8zm0 9.07h4.537v6.801h-4.537v-6.801zm-22.676 15.872h-4.536v-6.803h4.536v6.803zm0-9.071h-4.536v-6.801h4.536v6.801zm0-9.071h-4.536v-6.8h4.536v6.8zm0-9.072h-4.536v-6.803h4.536v6.803zm0-9.069h-4.536v-6.803h4.536v6.803zm0-9.072h-4.536v-6.803h4.536v6.803zm6.803 45.355h-4.535v-6.803h4.535v6.803zm0-9.071h-4.535v-6.801h4.535v6.801zm0-9.071h-4.535v-6.8h4.535v6.8zm0-9.072h-4.535v-6.803h4.535v6.803zm0-9.069h-4.535v-6.803h4.535v6.803zm0-9.072h-4.535v-6.803h4.535v6.803zm6.803 45.355h-4.535v-6.803h4.535v6.803zm0-9.071h-4.535v-6.801h4.535v6.801zm0-9.071h-4.535v-6.8h4.535v6.8zm0-9.072h-4.535v-6.803h4.535v6.803zm0-9.069h-4.535v-6.803h4.535v6.803zm0-9.072h-4.535v-6.803h4.535v6.803zm6.801 45.355h-4.529v-6.803h4.529v6.803zm0-9.071h-4.529v-6.801h4.529v6.801zm0-9.071h-4.529v-6.8h4.529v6.8zm0-9.072h-4.529v-6.803h4.529v6.803zm0-9.069h-4.529v-6.803h4.529v6.803zm0-9.072h-4.529v-6.803h4.529v6.803zm19.28 45.355h-9.071a1.14 1.14 0 0 1-1.138-1.132 1.14 1.14 0 0 1 1.138-1.138c.215 0 .425.063.613.186.31.203.7.234 1.039.098.344-.138.6-.435.677-.794a2.257 2.257 0 0 1 2.203-1.755c1.057 0 1.964.721 2.203 1.755a1.135 1.135 0 0 0 1.72.696c.736-.476 1.75.109 1.748.952 0 .622-.511 1.132-1.132 1.132z"/><path d="M586.204 394.867v-3.402h7.938c.623 0 1.132-.507 1.132-1.133v-1.134h4.535v1.134c0 .625.51 1.133 1.133 1.133h7.938v2.268h-19.273a1.134 1.134 0 1 0 0 2.267h28.346v47.032c0 .626.51 1.13 1.133 1.13.626 0 1.136-.504 1.136-1.13v-48.166c0-.626-.51-1.134-1.136-1.134h-7.934v-3.401c0-.627-.512-1.134-1.138-1.134h-7.933v-1.134a1.14 1.14 0 0 0-1.139-1.134h-6.8c-.628 0-1.135.509-1.135 1.134v1.134h-7.936c-.628 0-1.135.507-1.135 1.134v3.401H576c-.627 0-1.135.508-1.135 1.134v57.827h-6.803v-4.648c2.583-.53 4.534-2.818 4.534-5.555 0-.15-.064-14.739-5.668-14.739s-5.67 14.589-5.67 14.739c0 2.736 1.952 5.024 4.536 5.555v4.648h-3.401c-.625 0-1.134.509-1.134 1.133 0 .626.509 1.134 1.134 1.134H576c.625 0 1.132-.508 1.132-1.133V396h7.938c.626 0 1.134-.507 1.134-1.133zm-22.677 47.623c0-5.648 1.517-12.474 3.401-12.474s3.401 6.825 3.401 12.474c0 1.876-1.526 3.4-3.401 3.4a3.403 3.403 0 0 1-3.401-3.4z"/></symbol><symbol id="phone" viewBox="0 0 480.56 480.56"><path d="M365.354 317.9c-15.7-15.5-35.3-15.5-50.9 0-11.9 11.8-23.8 23.6-35.5 35.6-3.2 3.3-5.9 4-9.8 1.8-7.7-4.2-15.9-7.6-23.3-12.2-34.5-21.7-63.4-49.6-89-81-12.7-15.6-24-32.3-31.9-51.1-1.6-3.8-1.3-6.3 1.8-9.4 11.9-11.5 23.5-23.3 35.2-35.1 16.3-16.4 16.3-35.6-.1-52.1-9.3-9.4-18.6-18.6-27.9-28-9.6-9.6-19.1-19.3-28.8-28.8-15.7-15.3-35.3-15.3-50.9.1-12 11.8-23.5 23.9-35.7 35.5-11.3 10.7-17 23.8-18.2 39.1-1.9 24.9 4.2 48.4 12.8 71.3 17.6 47.4 44.4 89.5 76.9 128.1 43.9 52.2 96.3 93.5 157.6 123.3 27.6 13.4 56.2 23.7 87.3 25.4 21.4 1.2 40-4.2 54.9-20.9 10.2-11.4 21.7-21.8 32.5-32.7 16-16.2 16.1-35.8.2-51.8-19-19.1-38.1-38.1-57.2-57.1zm-19.1-79.7l36.9-6.3c-5.8-33.9-21.8-64.6-46.1-89-25.7-25.7-58.2-41.9-94-46.9l-5.2 37.1c27.7 3.9 52.9 16.4 72.8 36.3 18.8 18.8 31.1 42.6 35.6 68.8zm57.7-160.4c-42.6-42.6-96.5-69.5-156-77.8l-5.2 37.1c51.4 7.2 98 30.5 134.8 67.2 34.9 34.9 57.8 79 66.1 127.5l36.9-6.3c-9.7-56.2-36.2-107.2-76.6-147.7z"/></symbol><symbol id="pocket" viewBox="0 0 141.732 141.732"><path d="M121.846 14.023H19.117c-6.987 0-12.65 5.664-12.65 12.65v34.759c0 .279.013.536.03.781-.019.606-.03 1.223-.03 1.857 0 35.355 28.661 64.015 64.016 64.015 34.973 0 63.376-28.049 63.986-62.877.018-.235.029-.483.029-.762V26.674c0-6.986-5.665-12.651-12.652-12.651zm-15.612 47.985L77.575 90.665a8.548 8.548 0 0 1-7.093 2.443 8.55 8.55 0 0 1-7.093-2.442L34.73 62.008a8.573 8.573 0 0 1 0-12.126 8.575 8.575 0 0 1 12.127 0l23.625 23.624 23.624-23.624a8.576 8.576 0 0 1 12.128 12.126z"/></symbol><symbol id="printing" viewBox="549.921 375.591 90.708 90.708"><path d="M591.474 398.359h-.15a1.503 1.503 0 0 0 0 3.007h.15a1.503 1.503 0 1 0 0-3.007zm12.113 31.367h-3.24a1.504 1.504 0 1 0 0 3.008h3.24a1.505 1.505 0 0 0 0-3.008zm0-17.578h-3.24a1.504 1.504 0 0 0 0 3.008h3.24a1.504 1.504 0 1 0 0-3.008zm0 25.364h-3.24a1.504 1.504 0 0 0 0 3.008h3.24a1.505 1.505 0 0 0 0-3.008zm0 7.786h-3.24a1.505 1.505 0 0 0 0 3.007h3.24a1.504 1.504 0 1 0 0-3.007z"/><path d="M627.783 416.288h-9.469v-16.425a8.06 8.06 0 0 0-5.728-7.745l-23.83-7.301a1.503 1.503 0 1 0-.88 2.875l18.674 5.721v4.945h-10.903a1.504 1.504 0 1 0 0 3.007h.973c4.055 0 7.438 2.928 8.147 6.78h-16.138v-8.283a1.504 1.504 0 1 0-3.008 0v8.283h-5.446c-3.896 0-7.067 3.17-7.067 7.068v9.553l-9.613-5.397a1.503 1.503 0 1 0-1.472 2.622l11.084 6.223v7.099l-9.612-5.396a1.504 1.504 0 0 0-1.472 2.622l11.085 6.224v13.743a4.638 4.638 0 0 0 4.633 4.631 4.637 4.637 0 0 0 4.631-4.631v-.308h26.678v.308c0 2.553 2.077 4.631 4.632 4.631s4.633-2.078 4.633-4.631v-26.333a8.458 8.458 0 0 0 4.519-2.36 8.451 8.451 0 0 0 2.36-4.518h2.59a1.503 1.503 0 0 0-.001-3.007zm-51.668-1.074a4.066 4.066 0 0 1 4.06-4.061h5.446v8.024h-9.506v-3.963zm3.25 37.292a1.625 1.625 0 0 1-3.25 0v-.308h3.25v.308zm6.256-3.316h-9.505v-27.005h9.506l-.001 27.005zm23.935-54.854l2.149.658a5.063 5.063 0 0 1 3.378 3.365h-5.527v-4.023zm-20.927 16.818h26.678v14.678h-26.678v-14.678zm0 38.036v-4.778h26.678v4.778h-26.678zm26.678 3.316a1.624 1.624 0 1 1-3.249 0v-.308h3.249v.308zm0-11.101h-26.678v-4.779h26.678v4.779zm0-7.787h-26.678v-4.778h26.678v4.778zm0-25.472h-7.499a11.275 11.275 0 0 0-3.525-6.78h11.025v6.78zm5.4 13.541a5.478 5.478 0 0 1-2.393 1.407v-3.798h3.799a5.502 5.502 0 0 1-1.406 2.391z"/><path d="M582.904 412.766c-.831 0-1.504.673-1.504 1.504v1.599a1.504 1.504 0 1 0 3.007 0v-1.599a1.503 1.503 0 0 0-1.503-1.504z"/></symbol><symbol id="slogan" viewBox="0 0 592.921 51.297"><path d="M20.617.246l-5.195 17.309c-.656 1.732-1.522 4.621-2.598 8.668v16.57H9.023v-16.57a30.182 30.182 0 0 0-1.176-4.375 538.621 538.621 0 0 1-1.422-4.293L1.23.246V0h3.855l5.879 21.41L16.789 0h3.828v.246zM43.34 39.758c0 .894-.287 1.623-.861 2.188-.574.565-1.308.848-2.201.848H28.301c-.894 0-1.623-.282-2.188-.848-.565-.564-.848-1.294-.848-2.188V3.035c0-.893.282-1.622.848-2.188C26.678.283 27.407 0 28.301 0h11.977c.893 0 1.627.283 2.201.848.574.565.861 1.294.861 2.188v36.722zm-3.801-.328V3.363H29.066V39.43h10.473zm28.383.328c0 .894-.287 1.623-.861 2.188-.574.565-1.308.848-2.201.848H53.211c-.894 0-1.623-.282-2.188-.848-.565-.564-.848-1.294-.848-2.188V0h3.801v39.43h10.145V0h3.801v39.758zm25.047 3.035h-3.992L81.02 19.879l.52-.766h6.781V3.363h-9.762v39.43h-3.801V0h14.328c.893 0 1.622.283 2.188.848.565.565.848 1.294.848 2.188v16.242c0 2.06-1.386 3.09-4.156 3.09-.273 0-.675-.014-1.203-.041a25.642 25.642 0 0 0-1.148-.041 5813.615 5813.615 0 0 1 7.354 20.507zm33.332-3.035c0 .894-.278 1.623-.834 2.188-.556.565-1.281.848-2.174.848H112.52c-.894 0-1.627-.282-2.201-.848-.574-.564-.861-1.294-.861-2.188V28.902h3.801V39.43h9.242v-10.2l-11.813-14.273c-.82-.984-1.23-2.069-1.23-3.254V3.035c0-.893.287-1.622.861-2.188.574-.564 1.307-.847 2.201-.847h10.773c.893 0 1.618.283 2.174.848.556.565.834 1.294.834 2.188v9.953H122.5V3.363h-9.242v9.023l11.867 14.273c.784.948 1.176 2.015 1.176 3.199v9.9zm24.472 0c0 .894-.287 1.623-.861 2.188-.574.565-1.308.848-2.201.848h-11.648c-.894 0-1.623-.282-2.188-.848-.565-.564-.848-1.294-.848-2.188V0h3.801v39.43h10.145V0h3.801v39.758zm23.981 0c0 .894-.292 1.623-.875 2.188-.583.565-1.322.848-2.215.848h-11.02c-.894 0-1.623-.282-2.188-.848-.565-.564-.848-1.294-.848-2.188V3.035c0-.893.282-1.622.848-2.188.566-.564 1.295-.847 2.189-.847h11.02c.893 0 1.631.283 2.215.848.583.565.875 1.294.875 2.188v9.953h-3.828V3.363h-9.516V39.43h9.516V28.902h3.828v10.856zm23.789 0c0 .894-.292 1.623-.875 2.188-.583.565-1.322.848-2.215.848h-11.02c-.894 0-1.623-.282-2.188-.848-.565-.564-.848-1.294-.848-2.188V3.035c0-.893.282-1.622.848-2.188.566-.564 1.295-.847 2.189-.847h11.02c.893 0 1.631.283 2.215.848.583.565.875 1.294.875 2.188v9.953h-3.828V3.363H185.2V39.43h9.516V28.902h3.828v10.856zm20.699 3.035h-14.055V0h13.891v3.363h-10.09v15.969h9.188v3.418h-9.188v16.68h10.254v3.363zm22.613-3.035c0 .894-.278 1.623-.834 2.188-.556.565-1.281.848-2.174.848h-10.773c-.894 0-1.627-.282-2.201-.848-.574-.564-.861-1.294-.861-2.188V28.902h3.801V39.43h9.242v-10.2l-11.813-14.273c-.82-.984-1.23-2.069-1.23-3.254V3.035c0-.893.287-1.622.861-2.188.574-.564 1.308-.847 2.201-.847h10.773c.893 0 1.618.283 2.174.848.556.565.834 1.294.834 2.188v9.953h-3.801V3.363h-9.242v9.023L240.68 26.66c.784.948 1.176 2.015 1.176 3.199v9.899zm23.407 0c0 .894-.278 1.623-.834 2.188-.556.565-1.281.848-2.174.848H251.48c-.894 0-1.627-.282-2.201-.848-.574-.564-.861-1.294-.861-2.188V28.902h3.801V39.43h9.242v-10.2l-11.813-14.273c-.82-.984-1.23-2.069-1.23-3.254V3.035c0-.893.287-1.622.861-2.188.575-.564 1.308-.847 2.201-.847h10.773c.893 0 1.618.283 2.174.848.556.565.834 1.294.834 2.188v9.953h-3.801V3.363h-9.242v9.023l11.867 14.273c.784.948 1.176 2.015 1.176 3.199v9.9zm21.711 3.035h-3.801V0h3.801v42.793zm23.816-3.035c0 .894-.277 1.623-.834 2.188-.556.565-1.28.848-2.174.848h-10.773c-.894 0-1.627-.282-2.201-.848-.574-.564-.861-1.294-.861-2.188V28.902h3.8V39.43h9.242v-10.2l-11.812-14.273c-.82-.984-1.23-2.069-1.23-3.254V3.035c0-.893.287-1.622.861-2.188.574-.564 1.307-.847 2.201-.847h10.773c.894 0 1.618.283 2.174.848.557.565.834 1.294.834 2.188v9.953h-3.801V3.363h-9.242v9.023l11.867 14.273c.784.948 1.176 2.015 1.176 3.199v9.9zm35.765 0c0 .894-.287 1.623-.861 2.188-.574.565-1.308.848-2.201.848h-11.977c-.893 0-1.622-.282-2.188-.848-.564-.564-.848-1.294-.848-2.188V3.035c0-.893.283-1.622.848-2.188.566-.564 1.296-.847 2.188-.847h11.977c.894 0 1.627.283 2.201.848.574.565.861 1.294.861 2.188v36.722zm-3.801-.328V3.363H332.28V39.43h10.473zm28.383.328c0 .894-.287 1.623-.861 2.188-.574.565-1.308.848-2.201.848h-11.648c-.893 0-1.622-.282-2.188-.848-.564-.564-.848-1.294-.848-2.188V0h3.801v39.43h10.145V0h3.801v39.758zm25.047 3.035h-3.992l-7.957-22.914.52-.766h6.781V3.363h-9.762v39.43h-3.801V0H392.3c.894 0 1.623.283 2.188.848.565.565.848 1.294.848 2.188v16.242c0 2.06-1.385 3.09-4.156 3.09-.273 0-.674-.014-1.203-.041a25.545 25.545 0 0 0-1.148-.041c2.46 6.818 4.912 13.653 7.354 20.507zm33.797-3.035c0 .894-.282 1.623-.848 2.188-.564.565-1.294.848-2.188.848h-14.109V0h14c.894 0 1.623.283 2.188.848.565.565.848 1.294.848 2.188V15.75c0 1.13-.51 2.078-1.531 2.844l-3.008 1.805 3.227 2.078c.948.583 1.422 1.495 1.422 2.734v14.547zm-3.938-23.516V3.363h-9.406v15.449h5.605l3.801-2.57zm.11 23.188V24.637l-3.855-2.516h-5.66V39.43h9.515zm28.219.328c0 .894-.287 1.623-.861 2.188-.574.565-1.308.848-2.201.848H439.66c-.893 0-1.622-.282-2.188-.848-.564-.564-.848-1.294-.848-2.188V0h3.801v39.43h10.145V0h3.801v39.758zm23.515 0c0 .894-.277 1.623-.834 2.188-.556.565-1.28.848-2.174.848h-10.773c-.893 0-1.627-.282-2.201-.848-.574-.564-.861-1.294-.861-2.188V28.902h3.801V39.43h9.242v-10.2l-11.813-14.273c-.82-.984-1.23-2.069-1.23-3.254V3.035c0-.893.287-1.622.861-2.188.574-.564 1.308-.847 2.201-.847h10.773c.894 0 1.618.283 2.174.848.557.565.834 1.294.834 2.188v9.953h-3.801V3.363h-9.242v9.023L476.71 26.66c.784.948 1.176 2.015 1.176 3.199v9.899zm10.746 3.035h-3.801V0h3.801v42.793zm24.774 0h-2.625l-11.43-31.473v31.473h-3.582V0h2.844l11.211 30.926V0h3.582v42.793zm20.89 0h-14.055V0h13.891v3.363h-10.09v15.969h9.188v3.418h-9.188v16.68h10.254v3.363zm22.614-3.035c0 .894-.277 1.623-.834 2.188-.556.565-1.28.848-2.174.848h-10.773c-.893 0-1.627-.282-2.201-.848-.574-.564-.861-1.294-.861-2.188V28.902h3.801V39.43h9.242v-10.2l-11.813-14.273c-.82-.984-1.23-2.069-1.23-3.254V3.035c0-.893.287-1.622.861-2.188.573-.564 1.308-.847 2.2-.847h10.773c.894 0 1.618.283 2.174.848.557.565.834 1.294.834 2.188v9.953h-3.801V3.363h-9.242v9.023l11.867 14.273c.784.948 1.176 2.015 1.176 3.199v9.9zm23.406 0c0 .894-.277 1.623-.834 2.188-.556.565-1.28.848-2.174.848h-10.773c-.893 0-1.627-.282-2.201-.848-.574-.564-.861-1.294-.861-2.188V28.902h3.801V39.43h9.242v-10.2l-11.813-14.273c-.82-.984-1.23-2.069-1.23-3.254V3.035c0-.893.287-1.622.861-2.188.574-.564 1.308-.847 2.201-.847h10.773c.894 0 1.618.283 2.174.848.557.565.834 1.294.834 2.188v9.953h-3.801V3.363h-9.242v9.023L579.14 26.66c.784.948 1.176 2.015 1.176 3.199v9.899zm10.035 3.035h-4.156V37.98h4.156v4.813zM0 51.297v-2.789h268.57v2.789H0zm325.062 0v-2.789h267.859v2.789H325.062z"/></symbol><symbol id="team" viewBox="0 0 56 56"><path d="M51 30h-.54A5.97 5.97 0 0 0 52 26c0-3.309-2.691-6-6-6s-6 2.691-6 6a5.97 5.97 0 0 0 1.54 4H41c-1.13 0-2.162.391-3 1.026V28c0-2.757-2.243-5-5-5h-.54A5.97 5.97 0 0 0 34 19c0-.023-.003-.044-.003-.067a.983.983 0 0 0 .364-.226c3.509-3.509 3.509-9.219 0-12.728a8.949 8.949 0 0 0-5.36-2.571V3c0-1.654-1.346-3-3-3H0v2h26a1 1 0 0 1 1 1v.408a8.952 8.952 0 0 0-5.367 2.572c-3.509 3.509-3.509 9.219 0 12.728a.982.982 0 0 0 .37.227c0 .022-.003.043-.003.065a5.97 5.97 0 0 0 1.54 4H23c-2.757 0-5 2.243-5 5v3.026A4.948 4.948 0 0 0 15 30h-.54A5.97 5.97 0 0 0 16 26c0-3.309-2.691-6-6-6s-6 2.691-6 6a5.97 5.97 0 0 0 1.54 4H5c-2.757 0-5 2.243-5 5v7a1 1 0 0 0 1 1h3v12a1 1 0 0 0 1 1h10a1 1 0 0 0 1-1V43h3a1 1 0 0 0 1-1v-6h2v12a1 1 0 0 0 1 1h10a1 1 0 0 0 1-1V36h2v6a1 1 0 0 0 1 1h3v12a1 1 0 0 0 1 1h10a1 1 0 0 0 1-1V43h3a1 1 0 0 0 1-1v-7c0-2.757-2.243-5-5-5zm-9-4c0-2.206 1.794-4 4-4s4 1.794 4 4-1.794 4-4 4-4-1.794-4-4zm-12.766-1L28 27.057 26.766 25h2.468zM28 13a5.96 5.96 0 0 0-2.679.639c-.546-1.122-.364-2.499.554-3.417a3.002 3.002 0 0 1 4.242 0c.917.917 1.1 2.293.555 3.414A5.955 5.955 0 0 0 28 13zm-5.609 3.535c-2.052-2.739-1.833-6.652.656-9.142a6.954 6.954 0 0 1 4.95-2.047c1.872 0 3.63.728 4.949 2.047 2.489 2.489 2.708 6.402.656 9.143l-.267-.268a6.015 6.015 0 0 0-1.024-1.431 4.991 4.991 0 0 0-.78-6.029 5.005 5.005 0 0 0-7.07 0 4.991 4.991 0 0 0-.777 6.035 6.061 6.061 0 0 0-1.013 1.412l-.28.28zM24 19c0-.62.154-1.201.407-1.725.003-.006.009-.01.012-.017.138-.283.311-.548.511-.79l.016-.019c.201-.241.429-.46.68-.647l.008-.009A3.956 3.956 0 0 1 28 15c.888 0 1.702.301 2.366.792l.006.007c.252.187.48.406.681.648l.025.03c.199.244.372.51.51.795.004.008.011.013.014.02.248.52.398 1.095.398 1.708 0 2.206-1.794 4-4 4s-4-1.794-4-4zM6 26c0-2.206 1.794-4 4-4s4 1.794 4 4-1.794 4-4 4-4-1.794-4-4zm12 15h-2v-6h-2v19h-3V43H9v11H6V35H4v6H2v-6c0-1.654 1.346-3 3-3h10c1.654 0 3 1.346 3 3v6zm14-13v19h-3V36h-2v11h-3V28h-2v6h-2v-6c0-1.654 1.346-3 3-3h1.434l2.709 4.515a1 1 0 0 0 1.714 0L31.566 25H33c1.654 0 3 1.346 3 3v6h-2v-6h-2zm22 13h-2v-6h-2v19h-3V43h-2v11h-3V35h-2v6h-2v-6c0-1.654 1.346-3 3-3h10c1.654 0 3 1.346 3 3v6z"/><path d="M17 4h2v2h-2zm-4 0h2v2h-2zM9 4h2v2H9z"/></symbol><symbol id="top-about-title" viewBox="0 0 592.921 60.603"><text transform="translate(0 49.392)"><tspan x="0" y="0" font-family="&apos;AgencyFB-Reg&apos;" font-size="56" text-decoration="underline">YOUR SUCCESS</tspan><tspan x="268.57" y="0" font-family="&apos;AgencyFB-Reg&apos;" font-size="56"> IS </tspan><tspan x="325.062" y="0" font-family="&apos;AgencyFB-Reg&apos;" font-size="56" text-decoration="underline">OUR BUSINESS.</tspan></text></symbol><symbol id="twitter" viewBox="49.318 39.026 16.353 13.281"><path d="M63.99 42.336c.01.145.01.291.01.436 0 4.431-3.372 9.535-9.535 9.535a9.468 9.468 0 0 1-5.146-1.505c.27.031.529.042.81.042a6.713 6.713 0 0 0 4.161-1.432 3.358 3.358 0 0 1-3.135-2.324 3.572 3.572 0 0 0 1.516-.062 3.353 3.353 0 0 1-2.688-3.289v-.042a3.38 3.38 0 0 0 1.515.426 3.35 3.35 0 0 1-1.037-4.482 9.53 9.53 0 0 0 6.91 3.507 3.779 3.779 0 0 1-.083-.768 3.35 3.35 0 0 1 3.352-3.352c.965 0 1.836.404 2.448 1.059a6.62 6.62 0 0 0 2.128-.81 3.345 3.345 0 0 1-1.474 1.847 6.686 6.686 0 0 0 1.93-.519 7.19 7.19 0 0 1-1.682 1.733z"/></symbol><symbol id="video" viewBox="549.921 375.591 90.708 90.708"><path d="M627.3 394.858a3.211 3.211 0 0 0-3.523.625l-13.582 12.536v-10.414a5.908 5.908 0 0 0-5.901-5.901H567.16a5.908 5.908 0 0 0-5.901 5.901v27.768a5.725 5.725 0 0 0 5.718 5.719h17.634l-8.07 17.4a1.194 1.194 0 0 0 2.165 1.005l7.775-16.763 7.774 16.763a1.193 1.193 0 1 0 2.164-1.005l-8.069-17.4h15.671a6.183 6.183 0 0 0 6.174-6.176v-9.55l13.511 12.913a3.223 3.223 0 0 0 3.549.711 3.284 3.284 0 0 0 2.036-3.051V397.89a3.251 3.251 0 0 0-1.991-3.032zm-19.493 30.057a3.79 3.79 0 0 1-3.786 3.788h-37.044a3.334 3.334 0 0 1-3.331-3.331v-27.768a3.519 3.519 0 0 1 3.514-3.514h37.133a3.519 3.519 0 0 1 3.514 3.514v27.311zm19.097 1.023c0 .57-.426.79-.558.843a.848.848 0 0 1-.958-.196l-14.931-14.268a.907.907 0 0 1-.263-.66.9.9 0 0 1 .271-.64l14.943-13.792a.838.838 0 0 1 .591-.249c.155 0 .285.044.359.075a.892.892 0 0 1 .544.839v28.048z"/><path d="M582.906 410.47a7.7 7.7 0 0 0 1.03-3.847c0-4.278-3.48-7.758-7.758-7.758-4.277 0-7.758 3.48-7.758 7.758s3.48 7.758 7.758 7.758a7.715 7.715 0 0 0 5.225-2.04l1.69 1.69a1.19 1.19 0 0 0 1.688 0 1.192 1.192 0 0 0 0-1.688l-1.875-1.873zm-6.728 1.524c-2.961 0-5.371-2.41-5.371-5.371s2.41-5.371 5.371-5.371a5.378 5.378 0 0 1 5.371 5.371c0 .734-.149 1.434-.417 2.072l-2.319-2.319c-.467-.467-1.221-.467-1.688 0s-.467 1.221 0 1.688l2.579 2.58c-.946.83-2.171 1.35-3.526 1.35z"/></symbol><symbol id="web" viewBox="561.259 390.427 68.031 61.034"><path d="M626.585 411.765v-16.537a4.806 4.806 0 0 0-4.801-4.801H566.06a4.807 4.807 0 0 0-4.801 4.801v33.688a4.807 4.807 0 0 0 4.801 4.801h15.792l-1.808 1.945h-2.709a1.115 1.115 0 0 0 0 2.23h15.513v10.752a2.82 2.82 0 0 0 2.816 2.816h11.985a2.82 2.82 0 0 0 2.817-2.816v-2.265h15.004a3.824 3.824 0 0 0 3.818-3.82v-27.141a3.818 3.818 0 0 0-2.703-3.653zm.477 3.654v.305h-25.641v-.305c0-.877.714-1.591 1.591-1.591h22.46c.876 0 1.59.714 1.59 1.591zm-19.411 9.419h-6.229v-6.885h25.641v22.072h-16.594v-12.371a2.821 2.821 0 0 0-2.818-2.816zm.588 4.282h-13.16v-1.465a.59.59 0 0 1 .587-.589h11.984a.59.59 0 0 1 .588.589v1.465h.001zm16.117-32.777v15.255h-21.344a3.825 3.825 0 0 0-3.82 3.82v9.419h-3.526a2.82 2.82 0 0 0-2.816 2.813h-29.361v-31.307h60.867zm-29.277 35.007h13.159v13.601h-13.159V431.35zm-29.018-38.693h55.724c1.018 0 1.897.597 2.313 1.457h-60.352a2.573 2.573 0 0 1 2.315-1.457zm-2.382 37.224h29.171v1.606h-26.789c-1.078 0-2-.666-2.382-1.606zm19.41 5.781l1.808-1.945h7.953v1.945h-9.761zm24.562 13.57h-11.985a.589.589 0 0 1-.587-.588v-1.465h13.159v1.465a.587.587 0 0 1-.587.588zm17.821-5.082h-15.004v-1.896h16.593v.305a1.59 1.59 0 0 1-1.589 1.591z"/></symbol></svg>