<?xml version="1.0" encoding="utf-8"?>
<!-- Generator: Adobe Illustrator 15.0.2, SVG Export Plug-In . SVG Version: 6.00 Build 0)  -->
<!DOCTYPE svg PUBLIC "-//W3C//DTD SVG 1.1//EN" "http://www.w3.org/Graphics/SVG/1.1/DTD/svg11.dtd">
<svg version="1.1" id="レイヤー_3" xmlns="http://www.w3.org/2000/svg" xmlns:xlink="http://www.w3.org/1999/xlink" x="0px"
	 y="0px" width="141.732px" height="141.732px" viewBox="0 0 141.732 141.732" enable-background="new 0 0 141.732 141.732"
	 xml:space="preserve">
<path fill="#231815" d="M135.349,73.85L76.433,14.938c-3.074-3.076-8.06-3.076-11.133,0L6.384,73.85
	c-3.074,3.078-3.076,8.063,0,11.137L50.498,129.1h40.736l44.113-44.113C138.423,81.91,138.423,76.928,135.349,73.85z M37.319,86.179
	l-6.557-6.556c-0.456-0.457-0.456-1.198,0-1.655l38.897-38.899c0.459-0.457,1.2-0.457,1.659,0l8.754,8.759
	c0.455,0.457,0.455,1.196,0,1.654L43.374,86.179H37.319z M80.452,110.561l-6.559,6.556h-6.055l-6.557-6.556
	c-0.456-0.457-0.456-1.197,0-1.654l8.757-8.758c0.457-0.459,1.198-0.459,1.658,0l8.756,8.758
	C80.907,109.364,80.907,110.103,80.452,110.561z M80.546,79.721L58.73,101.535h-6.055l-6.557-6.556
	c-0.456-0.456-0.456-1.197,0-1.654l24.016-24.017c0.457-0.458,1.198-0.458,1.657,0l8.756,8.758
	C81.001,78.523,81.001,79.262,80.546,79.721z"/>
</svg>
